<?xml version="1.0" encoding="UTF-8" standalone="no"?>
<!-- Created with Inkscape (http://www.inkscape.org/) -->

<svg
   width="251"
   height="247.5"
   viewBox="0 0 50.2 49.5"
   version="1.1"
   id="svg5"
   xml:space="preserve"
   xmlns="http://www.w3.org/2000/svg"
   xmlns:svg="http://www.w3.org/2000/svg"
   xmlns:rdf="http://www.w3.org/1999/02/22-rdf-syntax-ns#"
   xmlns:cc="http://creativecommons.org/ns#"
   xmlns:dc="http://purl.org/dc/elements/1.1/"><title
     id="title2741">Bangladesh Infantry Regiment - বাংলাদেশ ইনফ্যান্ট্রি রেজিমেন্ট</title><defs
     id="defs2"><clipPath
       id="clip0"><rect
         x="274"
         y="88"
         width="481"
         height="481"
         id="rect40601" /></clipPath></defs><g
     id="layer1"
     transform="translate(-15.850914,-17.055135)"><g
       id="g2185"
       transform="matrix(0.27129949,0,0,0.27129949,10.768846,12.504789)"><g
         id="g103879"
         transform="matrix(0.98113379,0,0,0.98113379,281.31272,240.13442)"><path
           id="path40379"
           style="fill:none;stroke:#c0aa28;stroke-width:1.57515;stroke-linecap:butt;stroke-linejoin:miter;stroke-miterlimit:4;stroke-dasharray:none;stroke-opacity:1"
           d="m -154.46568,-197.91682 c 2.72718,-1.13046 5.71924,-2.13917 10.96443,-2.1201 -4.95959,14.86013 -15.36541,20.44422 -26.96067,22.2922 m 11.73769,-30.11612 c 3.38731,-2.12414 7.0132,-3.5287 10.47904,-4.31778 -0.6579,4.8955 -2.16854,9.70572 -6.22049,14.2618 -2.8337,3.18626 -6.91029,6.24824 -12.80732,9.12818 m -1.13222,-21.59745 c 2.75627,-6.83557 6.67964,-9.28929 10.78195,-11.59723 0.63963,6.04623 0.21496,10.56907 -1.10097,14.12248 -1.52356,4.11409 -4.24329,6.92651 -7.88763,9.3013 m -25.58816,0.64272 c -2.72718,-1.13046 -5.71926,-2.13917 -10.96444,-2.1201 4.9596,14.86013 15.36541,20.44422 26.96067,22.2922 m 5.74202,5.32602 v -5.32604 c 1.56109,-3.68334 2.58475,-7.71704 3.18885,-11.04377 0.6203,-3.41588 0.79799,-6.66116 0.66094,-9.77103 -0.18481,-4.194 -0.7757,-8.03769 -1.79335,-11.82649 -1.36996,-5.10047 -2.31692,-7.83617 -4.92752,-14.75259 v 0 c -2.61061,6.91642 -3.55755,9.65212 -4.92752,14.75259 -1.01764,3.7888 -1.60853,7.63249 -1.79336,11.82649 -0.13705,3.10987 0.0406,6.35515 0.66096,9.77103 0.6041,3.32673 1.62774,7.36043 3.18885,11.04377 v 5.32604 m -11.73755,-35.44214 c -3.38731,-2.12414 -7.0132,-3.5287 -10.47904,-4.31778 0.65789,4.8955 2.16854,9.70572 6.22049,14.2618 2.8337,3.18626 6.91029,6.24824 12.80731,9.12818 m 1.13222,-21.59745 c -2.75626,-6.83557 -6.67963,-9.28929 -10.78195,-11.59723 -0.63963,6.04623 -0.21495,10.56907 1.10097,14.12248 1.52356,4.11409 4.2433,6.92651 7.88764,9.3013" /><path
           id="path40606"
           style="fill:none;stroke:#c0aa28;stroke-width:1.57515;stroke-miterlimit:4;stroke-dasharray:none;stroke-opacity:1"
           d="m -156.04244,-182.94087 c 24.55664,7.41456 42.4388,30.21325 42.4388,57.18842 0,4.18497 -0.43041,8.26941 -1.24937,12.21149 -5.63637,27.130849 -29.67744,47.517865 -58.48,47.517865 -28.80242,0 -52.8434,-20.386827 -58.47992,-47.517495 -0.819,-3.94219 -1.24943,-8.02676 -1.24943,-12.21186 v 0 c 0,-26.97528 17.88229,-49.77405 42.43908,-57.18851" /><path
           d="m -216.92442,-128.92393 c 0,-24.07481 19.5166,-43.59141 43.59142,-43.59141 24.07481,0 43.59141,19.5166 43.59141,43.59141 0,24.07481 -19.5166,43.591404 -43.59141,43.591404 -24.07482,0 -43.59142,-19.516594 -43.59142,-43.591404 z"
           fill="#4472c4"
           fill-rule="evenodd"
           id="path41071"
           style="fill:none;stroke:#c0aa28;stroke-width:1.57515;stroke-miterlimit:4;stroke-dasharray:none;stroke-opacity:1" /><path
           id="path41142"
           style="fill:none;stroke:#c0aa28;stroke-width:1.57515;stroke-miterlimit:4;stroke-dasharray:none;stroke-opacity:1"
           d="m -234.08577,-107.51578 -13.59152,10.217085 c 7.83159,29.164113 38.14381,50.901284 74.34315,50.901807 36.19932,-5.23e-4 66.51156,-21.737688 74.343154,-50.901807 l -13.591534,-10.217085 c -6.99158,26.041569 -31.54055,45.275135 -60.75162,45.27557 -29.21107,-4.29e-4 -53.76005,-19.233995 -60.75163,-45.27557 z" /><path
           style="fill:none;stroke:#c0aa28;stroke-width:1.57515;stroke-linecap:butt;stroke-linejoin:miter;stroke-miterlimit:4;stroke-dasharray:none;stroke-opacity:1"
           d="m -114.8532,-113.54152 20.388115,15.096154 c -7.369495,31.753148 -39.879205,55.67621 -78.867915,55.67621 -27.76393,0 -52.24243,-12.131111 -66.69688,-30.582207 -0.84009,-1.072374 -1.64631,-2.166094 -2.41736,-3.280021 -2.78359,-4.021463 -5.10864,-8.30629 -6.91288,-12.800802 -1.17245,-2.920654 -2.12498,-5.929857 -2.84051,-9.012871 l 20.3875,-15.095163"
           id="path46117" /><g
           id="g55137"
           style="stroke:#c0aa28;stroke-width:2.5;stroke-miterlimit:4;stroke-dasharray:none;stroke-opacity:1"
           transform="matrix(0.63005965,0,0,0.63005965,-232.39347,-163.53032)"><path
             style="fill:none;stroke:#c0aa28;stroke-width:2.5;stroke-linecap:butt;stroke-linejoin:miter;stroke-miterlimit:4;stroke-dasharray:none;stroke-opacity:1"
             d="m -31.43697,103.30016 c -1.77097,17.83606 -10.665023,29.38705 -20.818238,39.82702 l 21.588305,-0.81851 6.325237,22.39445 c 3.710853,-7.73696 7.805249,-14.89665 12.221526,-21.57547"
             id="path51833" /><path
             style="fill:none;stroke:#c0aa28;stroke-width:2.5;stroke-linecap:butt;stroke-linejoin:miter;stroke-miterlimit:4;stroke-dasharray:none;stroke-opacity:1"
             d="m -26.92866,117.60495 c -3.036192,7.06196 -5.686735,13.01252 -11.799725,19.19186 l 11.873177,-0.26458 3.749758,13.88706 7.14859,-12.49753"
             id="path53832" /></g><g
           id="g55143"
           transform="matrix(-0.63005965,0,0,0.63005965,-114.27224,-163.53063)"
           style="stroke:#c0aa28;stroke-width:2.5;stroke-miterlimit:4;stroke-dasharray:none;stroke-opacity:1"><path
             style="fill:none;stroke:#c0aa28;stroke-width:2.5;stroke-linecap:butt;stroke-linejoin:miter;stroke-miterlimit:4;stroke-dasharray:none;stroke-opacity:1"
             d="m -31.43697,103.30016 c -1.77097,17.83606 -10.665023,29.38705 -20.818238,39.82702 l 21.588305,-0.81851 6.325237,22.39445 c 3.710853,-7.73696 7.805249,-14.89665 12.221526,-21.57547"
             id="path55139" /><path
             style="fill:none;stroke:#c0aa28;stroke-width:2.5;stroke-linecap:butt;stroke-linejoin:miter;stroke-miterlimit:4;stroke-dasharray:none;stroke-opacity:1"
             d="m -26.92866,117.60495 c -3.036192,7.06196 -5.686735,13.01252 -11.799725,19.19186 l 11.873177,-0.26458 3.749758,13.88706 7.14859,-12.49753"
             id="path55141" /></g><g
           id="g82039"
           transform="matrix(0.63005965,0,0,0.63005965,-420.96507,-93.46734)"><path
             id="rect64986"
             style="fill:#231e1e;fill-opacity:1;fill-rule:evenodd;stroke-width:0.239104"
             d="m 379.66806,-43.064821 a 4.2333333,3.5729187 0 0 0 -4.23334,3.572907 4.2333333,3.5729187 0 0 0 4.23334,3.572909 h 13.5599 13.5599 a 4.2333333,3.5729187 0 0 0 4.23333,-3.572909 4.2333333,3.5729187 0 0 0 -4.23333,-3.572907 h -13.5599 z" /><path
             id="rect71263"
             style="fill:#231e1e;fill-opacity:1;fill-rule:evenodd;stroke-width:0.410916"
             d="m 382.25706,-34.886638 v 30.1909216 c 0,4.41269404 -3.39521,5.50074204 -7.21866,2.964161 9.49994,18.3688734 28.7571,10.9835281 29.15957,1.19222503 V -34.886638 h -10.97046 z" /><g
             id="g81803"
             transform="translate(-2.35e-4,0.52916663)"><path
               id="rect59682"
               style="fill:none;fill-rule:evenodd;stroke:#231e1e;stroke-width:1.5;stroke-linecap:round;stroke-miterlimit:4;stroke-dasharray:none"
               d="m 383.4155,-121.56947 c 14.32732,0.91042 19.83328,17.41983 19.83328,25.981938 v 50.211181 H 383.4155 v -42.389331 c 0,-6.00807 1.10032,-8.79451 1.99144,-12.11075 1.5955,-5.937568 1.8632,-12.635288 -1.99144,-21.693038 z" /><path
               id="path77818"
               style="fill:#231e1e;fill-rule:evenodd;stroke-width:0.264583"
               d="m 391.97582,-45.432768 1.25236,-34.762781 1.25236,34.762781 z" /></g><path
             d="m 389.59713,-24.730595 c 0,-2.005235 1.62558,-3.63081 3.63082,-3.63081 2.00523,0 3.63081,1.625575 3.63081,3.63081 0,2.005236 -1.62558,3.63081 -3.63081,3.63081 -2.00524,0 -3.63082,-1.625574 -3.63082,-3.63081 z"
             fill="#4472c4"
             fill-rule="evenodd"
             id="path81921"
             style="fill:none;stroke:#ffffff;stroke-width:0.7;stroke-miterlimit:4;stroke-dasharray:none;stroke-opacity:1" /><path
             d="m 389.59713,-8.1941367 c 0,-2.0052353 1.62558,-3.6308103 3.63082,-3.6308103 2.00523,0 3.63081,1.625575 3.63081,3.6308103 0,2.005236 -1.62558,3.63081 -3.63081,3.63081 -2.00524,0 -3.63082,-1.625574 -3.63082,-3.63081 z"
             fill="#4472c4"
             fill-rule="evenodd"
             id="path81979"
             style="fill:none;stroke:#ffffff;stroke-width:0.7;stroke-miterlimit:4;stroke-dasharray:none;stroke-opacity:1" /></g><g
           id="g103473"
           transform="translate(-318.79909,-265.66591)"><path
             id="path82328"
             style="fill:#16713f;fill-opacity:1;stroke:#c0aa28;stroke-width:0.931999;stroke-linecap:butt;stroke-linejoin:miter;stroke-miterlimit:4;stroke-dasharray:none;stroke-opacity:1"
             d="m 139.57286,184.36832 c 0.76147,1.18535 1.27397,2.34354 1.57645,3.47879 0.64114,2.40622 0.33809,4.70925 -0.54199,6.9494 -0.28752,0.73188 -0.63661,1.45714 -1.03446,2.17698 3.6948,0 7.3896,0 11.0844,0 -0.39785,-0.71984 -0.74694,-1.4451 -1.03446,-2.17698 -0.88008,-2.24015 -1.18313,-4.54318 -0.54199,-6.9494 0.30248,-1.13525 0.81496,-2.29344 1.57645,-3.47879 -3.6948,0 -7.3896,0 -11.0844,0 z" /><path
             style="fill:none;stroke:#c0aa28;stroke-width:0.932001;stroke-linecap:butt;stroke-linejoin:miter;stroke-miterlimit:4;stroke-dasharray:none;stroke-opacity:1"
             d="m 141.14941,187.84711 c -5.43193,1.0626 -5.6567,5.3783 -0.54218,6.9495"
             id="path83213" /><path
             style="fill:none;stroke:#c0aa28;stroke-width:0.932001;stroke-linecap:butt;stroke-linejoin:miter;stroke-miterlimit:4;stroke-dasharray:none;stroke-opacity:1"
             d="m 111.47409,94.750176 c 9.35711,0.598645 14.94678,-3.119122 19.30317,-8.249895 -7.46029,0.689006 -14.55898,2.104449 -19.30317,8.249895 z"
             id="path83962" /><path
             style="fill:none;stroke:#c0aa28;stroke-width:0.932001;stroke-linecap:butt;stroke-linejoin:miter;stroke-miterlimit:4;stroke-dasharray:none;stroke-opacity:1"
             d="m 101.54943,115.04368 c 7.60955,-5.65761 10.33609,-10.85355 11.37161,-17.451042 -6.18582,3.528902 -10.14403,9.697642 -11.37161,17.451042 z"
             id="path84177" /><path
             style="fill:none;stroke:#c0aa28;stroke-width:0.932001;stroke-linecap:butt;stroke-linejoin:miter;stroke-miterlimit:4;stroke-dasharray:none;stroke-opacity:1"
             d="m 90.022646,127.83073 c 6.473229,-5.3895 8.267697,-11.06518 8.478638,-17.20141 -5.280336,3.9153 -8.220992,9.61199 -8.478638,17.20141 z"
             id="path84439" /><path
             style="fill:none;stroke:#c0aa28;stroke-width:0.932001;stroke-linecap:butt;stroke-linejoin:miter;stroke-miterlimit:4;stroke-dasharray:none;stroke-opacity:1"
             d="m 94.932859,146.3154 c 5.061037,-7.55987 4.409544,-14.61384 2.700154,-21.18659 -3.797141,5.99544 -4.935369,13.41375 -2.700154,21.18659 z"
             id="path84546" /><path
             style="fill:none;stroke:#c0aa28;stroke-width:0.932001;stroke-linecap:butt;stroke-linejoin:miter;stroke-miterlimit:4;stroke-dasharray:none;stroke-opacity:1"
             d="m 107.34344,166.05041 c -0.61235,-8.3097 -5.01337,-13.95307 -10.25119,-18.25062 0.450756,7.09138 3.88438,13.29493 10.25119,18.25062 z"
             id="path84966" /><path
             style="fill:none;stroke:#c0aa28;stroke-width:0.932001;stroke-linecap:butt;stroke-linejoin:miter;stroke-miterlimit:4;stroke-dasharray:none;stroke-opacity:1"
             d="m 100.85776,171.38056 c -0.34776,-9.81413 -5.072324,-13.52772 -10.310146,-17.4107 0.450756,7.09138 3.471655,12.9288 10.310146,17.4107 z"
             id="path84968" /><path
             style="fill:none;stroke:#c0aa28;stroke-width:0.932001;stroke-linecap:butt;stroke-linejoin:miter;stroke-miterlimit:4;stroke-dasharray:none;stroke-opacity:1"
             d="m 129.90003,185.39389 c -3.02263,-8.07088 -8.37871,-9.91925 -14.44045,-11.01717 3.09166,6.3913 6.21286,9.55529 14.44045,11.01717 z"
             id="path85259" /><path
             style="fill:none;stroke:#c0aa28;stroke-width:0.932001;stroke-linecap:butt;stroke-linejoin:miter;stroke-miterlimit:4;stroke-dasharray:none;stroke-opacity:1"
             d="m 119.227,188.15781 c -4.06492,-6.98206 -8.75393,-8.28602 -14.77398,-9.80272 3.30012,6.34943 6.5464,8.34085 14.77398,9.80272 z"
             id="path85488" /><path
             style="fill:none;stroke:#c0aa28;stroke-width:0.932001;stroke-linecap:butt;stroke-linejoin:miter;stroke-miterlimit:4;stroke-dasharray:none;stroke-opacity:1"
             d="m 149.08072,187.84711 c 5.43193,1.0626 5.6567,5.3783 0.54218,6.9495"
             id="path85952" /><path
             style="fill:none;stroke:#c0aa28;stroke-width:0.932001;stroke-linecap:butt;stroke-linejoin:miter;stroke-miterlimit:4;stroke-dasharray:none;stroke-opacity:1"
             d="m 129.90003,185.39389 c 2.96824,4.04931 4.853,4.34159 7.03009,5.86237"
             id="path86101" /><path
             style="fill:none;stroke:#c0aa28;stroke-width:0.932001;stroke-linecap:butt;stroke-linejoin:miter;stroke-miterlimit:4;stroke-dasharray:none;stroke-opacity:1"
             d="m 119.22701,188.15781 c 4.08146,1.01395 8.71141,1.21597 13.84901,0.66654"
             id="path86273" /><path
             style="fill:none;stroke:#c0aa28;stroke-width:0.932001;stroke-linecap:butt;stroke-linejoin:miter;stroke-miterlimit:4;stroke-dasharray:none;stroke-opacity:1"
             d="m 107.34345,166.05041 c 4.77184,10.83231 11.97852,20.20482 21.63297,23.05895"
             id="path86710" /><path
             style="fill:none;stroke:#c0aa28;stroke-width:0.932001;stroke-linecap:butt;stroke-linejoin:miter;stroke-miterlimit:4;stroke-dasharray:none;stroke-opacity:1"
             d="m 100.85777,171.38056 c 6.39328,5.3244 12.6897,8.84163 19.00804,12.66059"
             id="path87052" /><path
             style="fill:none;stroke:#c0aa28;stroke-width:0.932001;stroke-linecap:butt;stroke-linejoin:miter;stroke-miterlimit:4;stroke-dasharray:none;stroke-opacity:1"
             d="m 94.932872,146.3154 c 2.01076,16.442 11.715208,24.77965 17.268218,28.80581"
             id="path87414" /><path
             style="fill:none;stroke:#c0aa28;stroke-width:0.932001;stroke-linecap:butt;stroke-linejoin:miter;stroke-miterlimit:4;stroke-dasharray:none;stroke-opacity:1"
             d="m 90.022646,127.83073 c -1.021831,20.05829 5.434595,26.82128 7.104364,27.88282"
             id="path87682" /><path
             style="fill:none;stroke:#c0aa28;stroke-width:0.932001;stroke-linecap:butt;stroke-linejoin:miter;stroke-miterlimit:4;stroke-dasharray:none;stroke-opacity:1"
             d="m 101.54943,115.04368 c -2.206555,10.20358 -12.977236,12.03187 -10.411688,29.13127"
             id="path88103" /><path
             style="fill:none;stroke:#c0aa28;stroke-width:0.932001;stroke-linecap:butt;stroke-linejoin:miter;stroke-miterlimit:4;stroke-dasharray:none;stroke-opacity:1"
             d="m 111.47409,94.750175 c -4.00857,5.376115 -10.66361,5.684025 -11.33468,20.073105 -0.11115,2.38329 -0.12334,3.20259 -0.883528,5.72352"
             id="path88449" /><path
             id="path90557"
             style="fill:none;stroke:#c0aa28;stroke-width:0.932001;stroke-linecap:butt;stroke-linejoin:miter;stroke-miterlimit:4;stroke-dasharray:none;stroke-opacity:1"
             d="m 168.27821,181.7338 c 2.46903,-2.49742 2.98616,-5.31951 3.46322,-8.1614 -5.06357,4.88019 -14.31572,4.25959 -17.13967,17.28283 11.78076,6.13367 17.80899,-1.44743 23.59075,-3.40257 -2.48188,-1.44605 -4.37888,-1.65786 -7.86892,-1.34419 m 5.23258,-5.13832 c -2.28436,0.14871 -4.73847,0.24919 -7.27786,0.76353 -4.46109,0.90362 -9.14881,3.15757 -13.67651,9.12138 7.46038,0.30861 12.18087,-1.87525 15.72197,-4.74655 2.01569,-1.63442 3.65972,-3.46753 5.2324,-5.13836 z" /><path
             id="path91955"
             style="fill:none;stroke:#c0aa28;stroke-width:0.932001;stroke-linecap:butt;stroke-linejoin:miter;stroke-miterlimit:4;stroke-dasharray:none;stroke-opacity:1"
             d="m 183.92295,168.66248 c 1.22261,-2.93437 0.70074,-5.47426 0.13862,-8.01703 -2.58909,5.81558 -10.54721,8.45457 -8.50537,20.32486 11.94117,1.1146 14.79673,-7.32581 18.77831,-10.44029 -2.56774,-0.36366 -4.40185,-0.3565 -7.2184,1.09768 m 2.6433,-6.08945 c -1.8627,0.90442 -3.88387,1.82641 -5.83641,3.1241 -3.43014,2.27975 -6.59314,5.76769 -8.36683,12.3078 6.35205,-2.28855 9.56622,-5.72899 11.56011,-9.34247 1.13496,-2.05689 1.89147,-4.15328 2.64313,-6.08943 z" /><path
             id="path92123"
             style="fill:none;stroke:#c0aa28;stroke-width:0.932001;stroke-linecap:butt;stroke-linejoin:miter;stroke-miterlimit:4;stroke-dasharray:none;stroke-opacity:1"
             d="m 193.16884,152.3239 c 0.14736,-2.90989 -1.50774,-4.84267 -2.77752,-6.85893 -0.43522,5.8188 -6.05772,10.47944 -0.63191,20.07328 10.63543,-2.7604 10.69016,-10.5607 12.63003,-14.98935 -2.32525,0.48672 -3.5746,1.20455 -5.55285,3.33548 m 0.3973,-6.07173 c -1.32599,1.35989 -2.78314,2.7843 -4.06509,4.51112 -2.25208,3.03361 -3.90079,7.02523 -3.4095,13.21435 4.76753,-3.95169 6.47501,-7.91832 7.07737,-11.65382 0.34289,-2.12635 0.3474,-4.16881 0.39725,-6.07165 z" /><path
             id="path92193"
             style="fill:none;stroke:#c0aa28;stroke-width:0.932001;stroke-linecap:butt;stroke-linejoin:miter;stroke-miterlimit:4;stroke-dasharray:none;stroke-opacity:1"
             d="m 194.36819,133.76662 c -1.148,-2.8011 -2.29741,-4.0581 -4.26806,-5.0312 1.45023,4.42979 -1.71513,12.70243 7.13393,19.0773 7.90194,-7.73535 5.18743,-14.53922 4.92166,-20.38147 -1.73198,1.39455 -3.20075,3.06849 -3.96228,6.02467 m -2.31843,-5.88815 c -0.5404,1.91728 -1.16491,3.95855 -1.50691,6.19874 -0.60081,3.93549 -0.26524,8.47778 2.86582,14.04614 2.35361,-6.01382 2.07933,-10.56108 0.95957,-14.35683 -0.6374,-2.16065 -1.52792,-4.07888 -2.31847,-5.88807 z" /><path
             id="path92264"
             style="fill:none;stroke:#c0aa28;stroke-width:0.932001;stroke-linecap:butt;stroke-linejoin:miter;stroke-miterlimit:4;stroke-dasharray:none;stroke-opacity:1"
             d="m 189.49829,115.66076 c -1.7409,-2.18643 -3.69907,-2.74399 -5.67083,-3.26865 3.40279,4.47356 3.00925,12.23449 12.04755,15.17566 4.20493,-9.65054 -0.61858,-16.50187 -2.22433,-19.92481 -0.9925,2.02643 -1.35942,3.53437 -1.12817,6.48562 m -3.5824,-4.62697 c 0.11212,1.92925 0.19149,3.9993 0.55809,6.15906 0.64399,3.79419 2.2249,7.83762 6.37667,11.90707 0.18437,-6.26625 -1.34808,-10.33424 -3.35236,-13.43928 -1.1409,-1.76746 -2.41802,-3.2307 -3.58238,-4.62687 z" /><path
             id="path92515"
             style="fill:none;stroke:#c0aa28;stroke-width:0.932001;stroke-linecap:butt;stroke-linejoin:miter;stroke-miterlimit:4;stroke-dasharray:none;stroke-opacity:1"
             d="m 179.46375,102.13762 c -2.27545,-1.10145 -4.09087,-1.46115 -6.0965,-1.04175 3.92152,1.99627 6.22223,9.87022 15.57286,8.40574 1.12336,-10.092256 -6.24829,-12.262053 -8.81712,-15.982597 -0.33879,2.16738 0.5332,3.856767 1.7326,5.979502 m -4.71981,-2.375688 c 0.6703,1.598402 1.35105,3.331473 2.32786,5.014783 1.71601,2.95716 4.385,5.71504 9.47633,7.36404 -1.6619,-5.43296 -4.29257,-8.23311 -7.08441,-10.003243 -1.58921,-1.007603 -3.21726,-1.695438 -4.71976,-2.375602 z" /><path
             id="path92763"
             style="fill:none;stroke:#c0aa28;stroke-width:0.932001;stroke-linecap:butt;stroke-linejoin:miter;stroke-miterlimit:4;stroke-dasharray:none;stroke-opacity:1"
             d="m 164.6658,92.779346 c -1.70263,-0.876109 -4.48702,-1.470354 -6.38901,-0.181891 5.49067,0.750477 9.63178,8.048885 18.85915,4.52525 -3.4351,-9.909471 -9.48767,-9.190424 -13.51078,-12.292456 0.31986,1.552134 0.48945,2.146346 2.51159,4.025086 m -5.72929,-0.721141 c 1.2837,1.509914 2.47979,3.358141 4.25822,4.645174 2.92236,2.11489 6.80744,3.799023 12.47012,4.343437 -3.96669,-5.142364 -7.65118,-7.131303 -10.99912,-8.267577 -1.95489,-0.663482 -3.93373,-0.576452 -5.72921,-0.721068 z" /><path
             style="fill:none;stroke:#c0aa28;stroke-width:0.932001;stroke-linecap:butt;stroke-linejoin:miter;stroke-miterlimit:4;stroke-dasharray:none;stroke-opacity:1"
             d="m 154.6018,190.85506 -1.29549,0.24509"
             id="path94691" /></g></g><path
         id="path139661"
         style="font-size:9.34861px;line-height:1.25;font-family:'Siyam Rupali';-inkscape-font-specification:'Siyam Rupali';fill:#29210f;fill-opacity:1;stroke:#c0aa28;stroke-width:0.106574;stroke-miterlimit:4;stroke-dasharray:none;stroke-opacity:1"
         d="m 48.952344,140.87266 -0.98125,0.38632 0.639453,1.82383 -4.820703,1.89688 0.435156,1.24101 4.820703,-1.89687 0.637891,1.81953 0.98164,-0.38594 z m 124.510936,0.15664 -1.72812,4.87851 0.98007,0.38946 0.64532,-1.82149 4.81445,1.91406 0.43906,-1.23945 -4.81445,-1.91406 0.64375,-1.81758 z m -122.728905,4.89492 -5.547266,2.9082 0.553907,1.18633 2.425781,-1.27148 1.085937,2.325 -2.42539,1.27148 0.554297,1.18672 5.547265,-2.90781 -0.554297,-1.18672 -2.183203,1.14453 -1.086328,-2.325 2.183594,-1.14453 z m 120.901175,0.21523 -0.51836,1.10039 3.69883,1.95508 -4.82969,0.44649 -0.54258,1.15273 5.53828,2.92695 0.51836,-1.10039 -3.61172,-1.90898 4.72539,-0.45664 0.56016,-1.18867 z m -118.376566,5.07578 -5.230859,3.50469 2.516016,4.21485 0.88164,-0.59024 -1.848437,-3.09609 1.423828,-0.95391 1.660937,2.78203 0.88125,-0.59023 -1.660937,-2.78242 1.159766,-0.77696 1.784765,2.99024 0.885156,-0.59297 z m 115.904686,0.0793 -2.46484,4.10117 5.22031,3.52188 2.52891,-4.20625 -0.87969,-0.59336 -1.85742,3.08945 -1.42071,-0.95859 1.66915,-2.77656 -0.87969,-0.59336 -1.66914,2.77656 -1.15742,-0.78086 1.79375,-2.98399 z m -2.77344,4.62227 -1.17109,1.55078 2.60313,3.7125 -3.99844,-1.86524 -1.16836,1.54727 4.8332,4.09648 0.72539,-0.96054 -3.80468,-3.22461 4.56953,2.21172 0.75156,-0.99532 -3.03711,-4.24101 3.80469,3.22461 0.72539,-0.96055 z m -109.064839,1.74062 -4.722266,4.23828 1.361719,1.70313 c 0.519179,0.64 0.854431,1.03651 1.00625,1.18945 0.242602,0.24341 0.497073,0.40211 0.76289,0.47617 0.269776,0.0745 0.547246,0.0734 0.832813,-0.003 0.289526,-0.0762 0.541884,-0.21077 0.756641,-0.40352 0.272741,-0.24478 0.444361,-0.53938 0.515234,-0.88437 0.07088,-0.34499 0.02645,-0.70747 -0.133594,-1.0875 0.265188,0.13322 0.540247,0.17927 0.825,0.13867 0.286579,-0.0384 0.540128,-0.15655 0.761328,-0.35508 0.204015,-0.18311 0.346783,-0.39919 0.428125,-0.64805 0.08349,-0.25079 0.112804,-0.49803 0.08789,-0.7414 -0.02311,-0.24109 -0.09782,-0.47306 -0.224219,-0.6957 -0.122432,-0.2223 -0.342024,-0.53109 -0.658594,-0.92696 z m 0.02187,1.71563 0.464062,0.58007 c 0.380252,0.4755 0.604906,0.76839 0.674219,0.87813 0.115316,0.18571 0.16058,0.36185 0.135547,0.52891 -0.02106,0.1674 -0.104746,0.31659 -0.250781,0.44765 -0.152474,0.13688 -0.316078,0.19776 -0.490625,0.18242 -0.170578,-0.0149 -0.334585,-0.1003 -0.492188,-0.25585 -0.08715,-0.0859 -0.287983,-0.32555 -0.602734,-0.71915 l -0.529688,-0.6621 z m -1.878125,1.68554 0.652343,0.81563 c 0.367512,0.45956 0.583199,0.77809 0.647266,0.95508 0.06591,0.17926 0.07886,0.34947 0.03828,0.51093 -0.04057,0.16146 -0.132089,0.3056 -0.273828,0.43282 -0.167512,0.15004 -0.33984,0.22302 -0.517187,0.21836 -0.173383,-0.005 -0.333055,-0.0706 -0.478907,-0.19766 -0.09756,-0.0805 -0.291708,-0.30278 -0.582812,-0.6668 l -0.747656,-0.93515 z m 106.658984,0.30079 -0.85352,0.96718 4.52227,4.47696 0.85312,-0.96719 z m -99.852734,2.14492 -6.039453,2.92851 0.951562,0.97774 1.345703,-0.69219 1.775781,1.82461 -0.591015,1.46797 0.975781,1.00273 2.530469,-6.53476 z m 98.408194,0.33086 c -0.0823,-1.8e-4 -0.16548,0.005 -0.24921,0.0148 -0.53578,0.0596 -1.08495,0.36638 -1.64766,0.9207 -0.43285,0.4264 -0.72468,0.8625 -0.87539,1.30821 -0.19923,0.58308 -0.22728,1.16638 -0.084,1.75 0.14329,0.58361 0.43453,1.12533 0.87344,1.62539 0.40442,0.46074 0.86759,0.80031 1.38985,1.01875 0.52034,0.21624 1.0499,0.25689 1.58828,0.12148 0.53646,-0.13759 1.04154,-0.44002 1.51562,-0.90703 0.37308,-0.36752 0.67576,-0.8043 0.9082,-1.31016 0.23258,-0.51006 0.35854,-0.9576 0.37774,-1.34296 l -1.67891,-1.9129 -1.97265,1.94336 0.71015,0.80899 1.04805,-1.03242 0.53477,0.60898 c -0.0384,0.24959 -0.11897,0.51037 -0.2418,0.78203 -0.1227,0.26745 -0.27979,0.49554 -0.47149,0.68438 -0.3875,0.38173 -0.8254,0.54833 -1.31367,0.5 -0.49018,-0.0505 -0.98569,-0.36055 -1.48594,-0.93047 -0.46398,-0.52844 -0.69625,-1.0429 -0.69687,-1.54297 0.001,-0.50209 0.20208,-0.94984 0.60195,-1.34375 0.26384,-0.25993 0.5435,-0.40758 0.83946,-0.44258 0.2961,-0.0392 0.57989,0.0275 0.85078,0.20039 l 0.75078,-1.07539 c -0.4032,-0.29682 -0.82695,-0.44592 -1.27149,-0.44687 z m -98.949601,1.24336 -0.986718,2.37578 -1.2125,-1.24571 z m 3.364844,1.27343 -3.874609,5.11289 0.905078,0.76993 2.526953,-3.33399 -0.58125,4.98906 0.977734,0.83164 3.875,-5.11289 -0.905078,-0.76992 -2.58789,3.41446 0.6125,-5.09493 z m 91.189447,0.96055 -3.63594,2.96641 3.77618,5.19492 3.72968,-3.04258 -0.63593,-0.87539 -2.73984,2.23516 -1.02773,-1.41407 2.46211,-2.00859 -0.63633,-0.875 -2.46211,2.0082 -0.83711,-1.15156 2.64609,-2.15859 z m -86.049212,3.73477 c -0.46053,-9.4e-4 -0.894544,0.11457 -1.301954,0.34648 -0.50142,0.28543 -0.929465,0.71282 -1.284375,1.28281 -0.327021,0.52519 -0.52895,1.08264 -0.605859,1.67188 -0.07537,0.58674 0.01263,1.14108 0.264063,1.66328 0.252979,0.51971 0.649453,0.96846 1.189843,1.34609 0.425258,0.29718 0.897505,0.50567 1.416406,0.62539 0.522805,0.11886 0.963107,0.14242 1.321094,0.0711 l 1.357813,-2.18047 -2.248438,-1.5711 -0.574218,0.92227 1.194531,0.83477 -0.432422,0.69453 c -0.238009,0.0195 -0.49602,-0.002 -0.774219,-0.0641 -0.274296,-0.0631 -0.520557,-0.17113 -0.739062,-0.32382 -0.441709,-0.30868 -0.698077,-0.71995 -0.769141,-1.23399 -0.06951,-0.51652 0.09784,-1.09958 0.502344,-1.74922 0.375061,-0.60235 0.791916,-0.96305 1.25039,-1.08203 0.460825,-0.11734 0.919196,-0.017 1.375,0.30156 0.300736,0.21017 0.502231,0.4634 0.604297,0.75977 0.105957,0.29553 0.111347,0.60333 0.0168,0.92305 l 1.164063,0.51875 c 0.209681,-0.57504 0.22186,-1.13098 0.03672,-1.66758 -0.181243,-0.53745 -0.59257,-1.03028 -1.233984,-1.47852 -0.493399,-0.3448 -0.962224,-0.54199 -1.406641,-0.59179 -0.109105,-0.0126 -0.21677,-0.0189 -0.323046,-0.0191 z m 81.437102,0.31836 c -0.097,10e-4 -0.19445,0.0139 -0.29219,0.0371 -0.31191,0.0703 -0.74598,0.29433 -1.30273,0.67266 l -2.21406,1.50469 3.34179,5.51914 1.05197,-0.71484 -1.39532,-2.30391 0.21329,-0.14492 c 0.24165,-0.16422 0.43117,-0.2631 0.56836,-0.2961 0.13566,-0.0355 0.28757,-0.0305 0.45546,0.0148 0.16637,0.0428 0.51419,0.18716 1.04414,0.43281 l 1.4879,0.68398 1.25781,-0.85468 -1.28789,-0.64453 c -0.511,-0.25854 -0.8919,-0.42116 -1.14297,-0.4879 -0.24871,-0.0683 -0.52966,-0.0956 -0.84219,-0.0816 0.41469,-0.38099 0.65584,-0.78388 0.72305,-1.20859 0.0657,-0.42723 -0.027,-0.84798 -0.27774,-1.26211 -0.19756,-0.32628 -0.4488,-0.56439 -0.7539,-0.71484 -0.20977,-0.10344 -0.42139,-0.15401 -0.63477,-0.15117 z m -0.25351,1.29296 c 0.0646,2.8e-4 0.12742,0.0103 0.18828,0.0301 0.16315,0.0485 0.30083,0.16544 0.41328,0.35117 0.10009,0.16565 0.14814,0.32799 0.14414,0.48672 -0.004,0.15873 -0.0553,0.30309 -0.15352,0.4336 -0.0982,0.1305 -0.39966,0.36723 -0.90429,0.71015 l -0.77813,0.52891 -0.84804,-1.40039 0.82109,-0.55781 c 0.42644,-0.2898 0.68602,-0.45734 0.7789,-0.50274 0.11801,-0.0536 0.23063,-0.0802 0.33829,-0.0797 z m -76.674217,1.05625 -2.941016,5.70821 3.824219,2.21172 0.499609,-0.96993 -2.727344,-1.57695 2.441407,-4.73867 z m 71.242967,1.01329 -1.29297,0.67109 -0.20352,2.99492 -2.38554,-1.65039 -1.31563,0.68281 3.61328,2.35274 1.14649,2.47812 1.11836,-0.58047 -1.14258,-2.47031 z m -65.401561,2.12031 -4.733594,4.93672 1.209766,0.575 1.041406,-1.1375 2.257422,1.07343 -0.08242,1.59297 1.240234,0.58985 0.272657,-7.05743 z m 59.637491,1.01797 c -0.0198,-2.4e-4 -0.0397,-2.4e-4 -0.0598,3.9e-4 -0.31884,0.006 -0.78548,0.13884 -1.4,0.39804 l -2.44375,1.03086 2.28984,6.0918 1.16094,-0.48984 -0.95586,-2.54297 0.23516,-0.0992 c 0.26672,-0.11259 0.47072,-0.17151 0.61132,-0.17617 0.13956,-0.008 0.28747,0.0279 0.44416,0.10625 0.15563,0.0756 0.4715,0.28756 0.94765,0.63554 l 1.33789,0.97149 1.38828,-0.58555 -1.14882,-0.89258 c -0.45523,-0.3568 -0.79987,-0.59325 -1.03438,-0.70937 -0.23189,-0.1172 -0.50277,-0.20034 -0.81211,-0.24961 0.47553,-0.29045 0.78471,-0.63721 0.92695,-1.04063 0.1412,-0.40618 0.12571,-0.83783 -0.0461,-1.29492 -0.13535,-0.36014 -0.3392,-0.64509 -0.61172,-0.85429 -0.25549,-0.19615 -0.53211,-0.29575 -0.82969,-0.29922 z m -59.639444,0.65781 -0.16211,2.58984 -1.540625,-0.73242 z m 3.620312,0.007 -2.061719,6.18242 2.217188,0.83008 c 0.435241,0.16285 0.797569,0.24918 1.086719,0.25938 0.387035,0.012 0.717913,-0.0492 0.992578,-0.1836 0.363511,-0.17704 0.693099,-0.46298 0.989062,-0.8582 0.242239,-0.32362 0.448281,-0.73994 0.617969,-1.24883 0.193319,-0.57918 0.292036,-1.08957 0.295703,-1.53086 0.0048,-0.4441 -0.06943,-0.84802 -0.222656,-1.21211 -0.15322,-0.36409 -0.383499,-0.66387 -0.690234,-0.89883 -0.228526,-0.17406 -0.585428,-0.35184 -1.071094,-0.53359 z m 55.605852,0.56211 c 0.1271,-0.004 0.24227,0.0236 0.34532,0.0816 0.15144,0.0805 0.26591,0.22352 0.34296,0.42852 0.0687,0.18284 0.0865,0.35165 0.0539,0.50664 -0.0326,0.15498 -0.10866,0.28659 -0.22852,0.39492 -0.11985,0.10832 -0.45863,0.2799 -1.01562,0.51484 l -0.85899,0.3625 -0.58085,-1.54609 0.90625,-0.38203 c 0.47069,-0.19854 0.75573,-0.31086 0.85507,-0.33672 0.0627,-0.0144 0.1227,-0.0225 0.18047,-0.0242 z m -3.8289,0.33437 -4.69024,1.56954 0.31563,1.05781 1.75117,-0.58594 1.54884,5.19453 1.19139,-0.39844 -1.54883,-5.19492 1.74727,-0.58476 z m -50.947655,0.59024 0.529688,0.19805 c 0.480357,0.17976 0.796237,0.32015 0.947656,0.42109 0.203398,0.13304 0.352547,0.29829 0.448047,0.49531 0.09534,0.19703 0.140299,0.43819 0.134765,0.72383 -0.0057,0.28565 -0.08828,0.66735 -0.247656,1.14531 -0.159373,0.47796 -0.325224,0.8413 -0.497656,1.08985 -0.171489,0.24574 -0.34089,0.40529 -0.508594,0.47851 -0.165046,0.0743 -0.35142,0.10101 -0.559375,0.0801 -0.159089,-0.0153 -0.403335,-0.0847 -0.732422,-0.20781 l -0.879687,-0.3293 z m 4.625391,0.50898 -1.604297,6.33282 4.546484,1.29296 0.270313,-1.06718 -3.339453,-0.94961 0.436718,-1.72344 3.001172,0.85312 0.270313,-1.06679 -3.001172,-0.85352 0.355469,-1.4039 3.225781,0.91718 0.271094,-1.07148 z m 41.221874,0.58828 -1.12969,0.28321 0.95156,4.26094 -3.4168,-3.64297 -1.1832,0.29648 1.42539,6.38086 1.12969,-0.2832 -0.9293,-4.16094 3.35742,3.55195 1.22032,-0.30586 z m -34.667968,1.08672 c -0.177703,0.002 -0.345005,0.0212 -0.501953,0.057 -0.355977,0.0826 -0.648504,0.24932 -0.877344,0.5004 -0.225562,0.2487 -0.368024,0.53685 -0.427344,0.86484 -0.09218,0.50956 0.01632,0.97964 0.325391,1.40976 0.219812,0.30574 0.642884,0.61161 1.269531,0.91797 0.48703,0.23855 0.797822,0.39896 0.932031,0.48086 0.195782,0.12173 0.325346,0.24512 0.388672,0.37032 0.06665,0.12282 0.08615,0.26022 0.05859,0.4125 -0.04292,0.23721 -0.181508,0.42484 -0.415625,0.5625 -0.230819,0.13532 -0.543765,0.16268 -0.939062,0.0824 -0.37318,-0.0758 -0.652378,-0.23565 -0.8375,-0.47969 -0.182336,-0.24348 -0.270949,-0.5846 -0.266016,-1.02383 l -1.216406,-0.11953 c -0.05017,0.73669 0.0963,1.33547 0.439843,1.79688 0.344064,0.45847 0.900266,0.76584 1.66875,0.92187 0.527985,0.10723 0.982927,0.1193 1.364844,0.0359 0.382442,-0.0863 0.69978,-0.27107 0.951563,-0.55391 0.251777,-0.28285 0.410975,-0.60874 0.477734,-0.97773 0.07364,-0.40707 0.05391,-0.76466 -0.05938,-1.07305 -0.110002,-0.31076 -0.294635,-0.5745 -0.553516,-0.79102 -0.255581,-0.21888 -0.668208,-0.46378 -1.238281,-0.73437 -0.570073,-0.27059 -0.9201,-0.4903 -1.05,-0.65938 -0.102039,-0.13304 -0.139279,-0.27583 -0.111719,-0.42812 0.0302,-0.16692 0.119253,-0.28696 0.267188,-0.36016 0.229875,-0.1142 0.523088,-0.1349 0.879687,-0.0625 0.345538,0.0702 0.590652,0.19573 0.735547,0.37696 0.148185,0.17886 0.218668,0.43928 0.211328,0.78086 l 1.237891,0.19179 c 0.08767,-0.59548 -0.03023,-1.10964 -0.353125,-1.54258 -0.320134,-0.43236 -0.861657,-0.72594 -1.624609,-0.88085 -0.262783,-0.0534 -0.508245,-0.0788 -0.736719,-0.0762 z m 27.255078,0.57696 -1.30586,0.21484 -1.43204,6.87148 1.30977,-0.21562 0.28906,-1.55508 2.44492,-0.40234 0.74961,1.38398 1.34336,-0.22109 z m -23.44415,0.21328 -0.709366,6.51406 1.241406,0.15156 0.31015,-2.84804 2.43281,0.29726 -0.31015,2.84805 1.2414,0.15156 0.70938,-6.51367 -1.24141,-0.15156 -0.27929,2.56367 -2.43282,-0.29727 0.2793,-2.56367 z m 20.24493,0.30703 -4.22735,0.38594 0.53164,6.53281 1.24532,-0.11367 -0.22618,-2.77618 2.57422,-0.23515 -0.0898,-1.10508 -2.57422,0.23516 -0.12617,-1.54649 2.98242,-0.27226 z m -12.18282,0.45859 -0.20312,6.55352 1.24883,0.0434 0.20351,-6.55313 z m 7.04063,0.001 -1.16094,0.0238 0.0789,4.37774 -2.61172,-4.32657 -1.21563,0.0246 0.11836,6.55586 1.16055,-0.0234 -0.0769,-4.27539 2.57187,4.2246 1.25352,-0.0254 z m 7.8957,0.64141 1.19492,2.26563 -1.66875,0.27461 z" /></g></g><metadata
     id="metadata683"><rdf:RDF><cc:Work
         rdf:about=""><cc:license
           rdf:resource="http://creativecommons.org/publicdomain/zero/1.0/" /><dc:title>Bangladesh Infantry Regiment - বাংলাদেশ ইনফ্যান্ট্রি রেজিমেন্ট</dc:title></cc:Work><cc:License
         rdf:about="http://creativecommons.org/publicdomain/zero/1.0/"><cc:permits
           rdf:resource="http://creativecommons.org/ns#Reproduction" /><cc:permits
           rdf:resource="http://creativecommons.org/ns#Distribution" /><cc:permits
           rdf:resource="http://creativecommons.org/ns#DerivativeWorks" /></cc:License></rdf:RDF></metadata></svg>
